<svg width="58" height="73" viewBox="0 0 58 73" fill="none" xmlns="http://www.w3.org/2000/svg">
<path d="M45.5 0.901855H1.5V71.9019H45.5V0.901855Z" fill="white" stroke="#111111" stroke-width="1.5" stroke-miterlimit="10"/>
<rect x="14.5" y="60.9019" width="19" height="7" rx="3.5" fill="#111111"/>
<rect x="7" y="6.40186" width="5.51163" height="5.51163" rx="1.5" stroke="#111111"/>
<path d="M15.0116 9.15771H41.0116" stroke="#111111"/>
<rect x="7" y="14.9136" width="5.51163" height="5.51163" rx="1.5" stroke="#111111"/>
<path d="M15.0116 17.6694H41.0116" stroke="#111111"/>
<rect x="7" y="23.425" width="5.51163" height="5.51163" rx="1.5" stroke="#111111"/>
<path d="M15.0116 26.1809H41.0116" stroke="#111111"/>
<path d="M1.5 35.9019L45.5 35.9019" stroke="#111111" stroke-width="1.5" stroke-miterlimit="10" stroke-dasharray="2 2"/>
<path d="M6.5 41.9019H32.5" stroke="#111111" stroke-miterlimit="10"/>
<path d="M6.5 48.9019H28.5" stroke="#111111" stroke-miterlimit="10"/>
<path d="M6.5 55.9019H28.5" stroke="#111111" stroke-miterlimit="10"/>
<rect x="34.25" y="40.6519" width="22.5" height="22.5" rx="11.25" fill="white"/>
<path d="M44.9632 45.4499L45.0052 47.7179H46.2512L46.2792 45.4499H44.9632ZM45.0052 56.1599L44.9632 58.4699H46.2792L46.2372 56.1599H45.0052ZM47.5252 49.8459L48.8272 49.0479C48.6686 48.7025 48.4446 48.3712 48.1552 48.0539C47.8752 47.7365 47.5206 47.4752 47.0912 47.2699C46.6712 47.0645 46.1672 46.9619 45.5792 46.9619C44.9912 46.9619 44.4639 47.0739 43.9972 47.2979C43.5306 47.5219 43.1619 47.8205 42.8912 48.1939C42.6299 48.5672 42.4992 48.9825 42.4992 49.4399C42.4992 49.9065 42.5832 50.3032 42.7512 50.6299C42.9192 50.9565 43.1339 51.2365 43.3952 51.4699C43.6566 51.6939 43.9319 51.8805 44.2212 52.0299C44.5199 52.1699 44.7906 52.2819 45.0332 52.3659C45.4066 52.5059 45.7566 52.6552 46.0832 52.8139C46.4192 52.9725 46.6899 53.1685 46.8952 53.4019C47.1099 53.6259 47.2172 53.9199 47.2172 54.2839C47.2172 54.5639 47.1612 54.8065 47.0492 55.0119C46.9466 55.2079 46.7832 55.3572 46.5592 55.4599C46.3446 55.5625 46.0692 55.6139 45.7332 55.6139C45.3506 55.6139 45.0099 55.5345 44.7112 55.3759C44.4219 55.2172 44.1559 54.9885 43.9132 54.6899C43.6706 54.3912 43.4466 54.0272 43.2412 53.5979L41.9672 54.4239C42.1726 54.9279 42.4572 55.3759 42.8212 55.7679C43.1852 56.1599 43.6099 56.4725 44.0952 56.7059C44.5806 56.9299 45.1032 57.0419 45.6632 57.0419C46.3632 57.0419 46.9559 56.9299 47.4412 56.7059C47.9266 56.4725 48.2999 56.1412 48.5612 55.7119C48.8226 55.2825 48.9532 54.7832 48.9532 54.2139C48.9532 53.7752 48.8786 53.3925 48.7292 53.0659C48.5799 52.7392 48.3839 52.4639 48.1412 52.2399C47.8986 52.0065 47.6279 51.8105 47.3292 51.6519C47.0399 51.4932 46.7552 51.3625 46.4752 51.2599C46.0832 51.1105 45.7146 50.9612 45.3692 50.8119C45.0239 50.6625 44.7439 50.4852 44.5292 50.2799C44.3146 50.0745 44.2072 49.8132 44.2072 49.4959C44.2072 49.2532 44.2539 49.0479 44.3472 48.8799C44.4499 48.7025 44.6039 48.5672 44.8092 48.4739C45.0239 48.3805 45.2946 48.3339 45.6212 48.3339C45.9386 48.3339 46.2139 48.4039 46.4472 48.5439C46.6806 48.6839 46.8812 48.8705 47.0492 49.1039C47.2266 49.3279 47.3852 49.5752 47.5252 49.8459Z" fill="#111111"/>
<rect x="34.25" y="40.6519" width="22.5" height="22.5" rx="11.25" stroke="#111111" stroke-width="1.5"/>
</svg>
