<svg width="53" height="50" viewBox="0 0 53 50" fill="none" xmlns="http://www.w3.org/2000/svg">
<path d="M17.25 10.5945C17.25 5.15753 21.6575 0.75 27.0945 0.75C32.5314 0.75 36.939 5.15753 36.939 10.5945V16.2012H17.25V10.5945Z" stroke="#111111" stroke-width="1.5"/>
<path d="M1.5 49.1103L4.18773 15.1104L48.5254 15.1104L51.5 49.1104L1.5 49.1103Z" fill="white" stroke="#111111" stroke-width="1.5"/>
<path d="M41.1016 26.3704C41.0911 24.9792 40.5635 23.6468 39.6304 22.6549C38.6974 21.663 37.432 21.0893 36.1017 21.0552C33.3286 21.0552 31.9 23.3833 31.1017 25.0965C30.7362 23.9864 30.068 23.0124 29.1796 22.2943C28.2912 21.5762 27.2213 21.1455 26.1017 21.0552C25.4396 21.0609 24.785 21.203 24.1754 21.4732C23.5658 21.7434 23.013 22.1365 22.5487 22.6301C22.0845 23.1237 21.7177 23.708 21.4694 24.3498C21.2211 24.9916 21.0962 25.6782 21.1017 26.3704C21.1017 33.1792 31.1017 38.0552 31.1017 38.0552C31.1017 38.0552 41.1016 33.6185 41.1016 26.3704Z" fill="white" stroke="#111111" stroke-linejoin="round"/>
<path d="M34.1016 31.9957C34.09 30.4409 33.5097 28.9517 32.4833 27.8431C31.457 26.7345 30.065 26.0934 28.6017 26.0552C25.5513 26.0552 23.9798 28.6572 23.1017 30.572C22.6996 29.3313 21.9647 28.2426 20.9874 27.4401C20.0102 26.6375 18.8333 26.1561 17.6017 26.0552C16.8734 26.0616 16.1534 26.2203 15.4828 26.5224C14.8122 26.8244 14.2042 27.2638 13.6935 27.8154C13.1827 28.367 12.7793 29.0201 12.5062 29.7374C12.2331 30.4547 12.0957 31.2221 12.1018 31.9957C12.1018 39.6056 23.1017 45.0552 23.1017 45.0552C23.1017 45.0552 34.1016 40.0965 34.1016 31.9957Z" fill="#111111"/>
</svg>
