<svg width="65" height="70" viewBox="0 0 65 70" fill="none" xmlns="http://www.w3.org/2000/svg">
<path d="M43.6839 3.5271H20.0059C16.8794 3.5271 14.3449 6.00497 14.3449 9.06157V49.9926C14.3449 53.0492 16.8794 55.5271 20.0059 55.5271H43.6839C46.8104 55.5271 49.3449 53.0492 49.3449 49.9926V9.06157C49.3449 6.00497 46.8104 3.5271 43.6839 3.5271Z" fill="white" stroke="#111111" stroke-width="1.5" stroke-miterlimit="10"/>
<rect x="18.8449" y="8.61035" width="26" height="28" rx="3.5" stroke="#111111"/>
<path d="M31.407 50.0861L23.4029 60.0707C23.3475 60.1418 23.3134 60.2267 23.3043 60.3158C23.2953 60.4048 23.3118 60.4946 23.3519 60.5751C23.392 60.6555 23.4541 60.7234 23.5313 60.7711C23.6085 60.8188 23.6978 60.8446 23.7891 60.8453H27.914C28.0429 60.8496 28.1654 60.9018 28.2567 60.9913C28.3479 61.0808 28.4011 61.2009 28.4055 61.3274V68.4198C28.4055 68.5477 28.4572 68.6703 28.5494 68.7607C28.6416 68.8511 28.7666 68.9019 28.8969 68.9019H34.7069C34.8373 68.9019 34.9623 68.8511 35.0545 68.7607C35.1466 68.6703 35.1984 68.5477 35.1984 68.4198V61.3274C35.2028 61.2009 35.256 61.0808 35.3472 60.9913C35.4385 60.9018 35.5609 60.8496 35.6899 60.8453H39.8148C39.9061 60.8446 39.9953 60.8188 40.0726 60.7711C40.1498 60.7234 40.2119 60.6555 40.252 60.5751C40.2921 60.4946 40.3086 60.4048 40.2995 60.3158C40.2905 60.2267 40.2564 60.1418 40.201 60.0707L32.1969 50.0861C32.1491 50.0286 32.0889 49.9821 32.0206 49.9503C31.9523 49.9184 31.8776 49.9019 31.8019 49.9019C31.7263 49.9019 31.6516 49.9184 31.5833 49.9503C31.5149 49.9821 31.4547 50.0286 31.407 50.0861Z" fill="#111111" stroke="#111111" stroke-miterlimit="10"/>
<rect x="18.8215" y="40.1104" width="7" height="7" rx="3.5" fill="#111111"/>
<path d="M26.6663 17.5752L31.3031 21.8232L37.6057 14.2434" stroke="white" stroke-width="1.5" stroke-miterlimit="10"/>
<path d="M42.0572 40.2769H32.6327C30.8169 40.2769 29.3449 41.62 29.3449 43.2769C29.3449 44.9337 30.8169 46.2769 32.6327 46.2769H42.0572C43.8729 46.2769 45.3449 44.9337 45.3449 43.2769C45.3449 41.62 43.8729 40.2769 42.0572 40.2769Z" fill="white" stroke="#111111" stroke-miterlimit="10"/>
<path d="M10.8144 36.9019C10.8144 44.0097 7.81582 50.2845 1.23553 50.2845C7.81582 50.2845 10.8144 56.5594 10.8144 63.6672C10.8144 56.5594 13.813 50.2845 20.3933 50.2845C13.813 50.2845 10.8144 44.0097 10.8144 36.9019Z" fill="white" stroke="#111111" stroke-width="1.5" stroke-linejoin="round"/>
<path d="M54.1855 1.11035C54.1855 8.21817 51.1869 14.493 44.6066 14.493C51.1869 14.493 54.1855 20.7679 54.1855 27.8757C54.1855 20.7679 57.1841 14.493 63.7644 14.493C57.1841 14.493 54.1855 8.21817 54.1855 1.11035Z" fill="white" stroke="#111111" stroke-width="1.5" stroke-linejoin="round"/>
</svg>
