<svg width="73" height="62" viewBox="0 0 73 62" fill="none" xmlns="http://www.w3.org/2000/svg">
<path d="M56.9023 42.9552H15.9023V60.9552H56.9023V42.9552Z" fill="white" stroke="white" stroke-width="1.5" stroke-miterlimit="10"/>
<path d="M72 32.2501L57.5926 42.5161V61.2501H15.2272V42.5161L1 32.2501" stroke="#111111" stroke-width="1.5" stroke-miterlimit="10"/>
<path d="M59.3368 7.66788C61.1258 7.66788 62.576 6.21766 62.576 4.42873C62.576 2.63979 61.1258 1.18958 59.3368 1.18958C57.5479 1.18958 56.0977 2.63979 56.0977 4.42873C56.0977 6.21766 57.5479 7.66788 59.3368 7.66788Z" fill="#F5F5F5" stroke="#111111" stroke-miterlimit="10"/>
<path d="M49.3654 15.4152L39.113 3.73645H33.972C33.972 7.74825 31.6838 8.72891 30.1088 8.72891C28.5338 8.72891 26.1267 7.74825 26.1267 3.73645H20.8371L10.2578 15.4152L15.904 19.8728L20.5696 15.2964V30.1549H39.4993V15.2964L43.8974 19.8728L49.3654 15.4152Z" fill="#F5F5F5" stroke="#111111" stroke-width="1.5" stroke-miterlimit="10"/>
<path d="M64.3654 22.2609L54.113 10.5822H48.972C48.972 14.5939 46.6838 15.5746 45.1088 15.5746C43.5338 15.5746 41.1267 14.5939 41.1267 10.5822H35.8371L25.2578 22.2609L30.904 26.7185L35.5696 22.1421V37.0006H54.4993V22.1421L58.8974 26.7185L64.3654 22.2609Z" fill="#111111"/>
<path d="M12.3368 32.1835C14.1257 32.1835 15.5759 30.7333 15.5759 28.9444C15.5759 27.1554 14.1257 25.7052 12.3368 25.7052C10.5479 25.7052 9.09766 27.1554 9.09766 28.9444C9.09766 30.7333 10.5479 32.1835 12.3368 32.1835Z" fill="#F5F5F5" stroke="#111111" stroke-miterlimit="10"/>
</svg>
