<svg width="59" height="70" viewBox="0 0 59 70" fill="none" xmlns="http://www.w3.org/2000/svg">
<path d="M38.7983 0.901855H1.62744V48.0909H38.7983V0.901855Z" fill="white" stroke="#111111" stroke-width="1.5" stroke-miterlimit="10"/>
<path d="M7.95941 7.97412H31.8188" stroke="#111111" stroke-miterlimit="10"/>
<path d="M7.95941 14.3741H31.8188" stroke="#111111" stroke-miterlimit="10"/>
<path d="M7.95941 20.7996H31.8188" stroke="#111111" stroke-miterlimit="10"/>
<path d="M7.95941 27.2258H20.5109" stroke="#111111" stroke-miterlimit="10"/>
<path d="M7.95941 33.6504H17.6782" stroke="#111111" stroke-miterlimit="10"/>
<path d="M7.95941 40.0751H17.1946" stroke="#111111" stroke-miterlimit="10"/>
<path d="M47.9507 11.4019H10.7798V58.5909H47.9507V11.4019Z" fill="white" stroke="#111111" stroke-width="1.5" stroke-miterlimit="10"/>
<path d="M17.1118 18.4741H40.9711" stroke="#111111" stroke-miterlimit="10"/>
<path d="M17.1118 24.8741H40.9711" stroke="#111111" stroke-miterlimit="10"/>
<path d="M17.1118 31.2996H40.9711" stroke="#111111" stroke-miterlimit="10"/>
<path d="M17.1118 37.7258H29.6633" stroke="#111111" stroke-miterlimit="10"/>
<path d="M17.1118 44.1504H26.8305" stroke="#111111" stroke-miterlimit="10"/>
<path d="M17.1118 50.5751H26.3469" stroke="#111111" stroke-miterlimit="10"/>
<path d="M57.3726 22.0005H20.2017V69.1896H57.3726V22.0005Z" fill="white" stroke="#111111" stroke-width="1.5" stroke-miterlimit="10"/>
<path d="M26.5336 29.0728H50.393" stroke="#111111" stroke-width="1.5" stroke-miterlimit="10"/>
<path d="M26.5336 35.4728H50.393" stroke="#111111" stroke-width="1.5" stroke-miterlimit="10"/>
<path d="M26.5336 41.8982H50.393" stroke="#111111" stroke-width="1.5" stroke-miterlimit="10"/>
<path d="M26.6782 48.2046H33.6782" stroke="#111111" stroke-width="1.5" stroke-miterlimit="10"/>
<path d="M26.7017 54.5454H31.7017" stroke="#111111" stroke-width="1.5" stroke-miterlimit="10"/>
<path d="M26.6782 60.2046H32.6782" stroke="#111111" stroke-width="1.5" stroke-miterlimit="10"/>
<rect x="35.4517" y="46.2954" width="17.5" height="17.5" rx="8.75" fill="#111111"/>
<path d="M48.2017 55.0454L40.2017 55.0454" stroke="white" stroke-width="1.5"/>
<path d="M44.2017 51.0454V59.0454" stroke="white" stroke-width="1.5"/>
<rect x="35.4517" y="46.2954" width="17.5" height="17.5" rx="8.75" stroke="white" stroke-width="1.5"/>
</svg>
